<svg id="Layer_1" data-name="Layer 1" xmlns="http://www.w3.org/2000/svg" viewBox="0 0 99 37"><polygon points="52.91 1 52.91 17.98 45.55 10.6 42.88 13.27 45.78 16.17 37.81 16.17 37.81 1 31.84 1 31.84 36 37.81 36 37.81 19.78 45.78 19.78 42.88 22.7 45.55 25.38 52.91 17.99 52.91 36 58.92 36 58.92 1 52.91 1"/><path d="M1,1H14.22c7.46,0,11.66,3.61,11.66,10.82,0,7-4.36,11-11.85,11H7V36H1ZM13.63,18.15c4.14,0,6.16-2.23,6.16-6.38s-2-5.95-6.08-5.95H7V18.15Z"/><path d="M67.92,1H80.33C92.26,1,98.07,7.78,98.07,18.45S92.26,36,80.33,36H67.92ZM80.47,30.94c8,0,11.44-4.61,11.44-12.49S88.43,6.06,80.47,6.06H73.9V30.94Z"/></svg>