<svg id="Layer_1" data-name="Layer 1" xmlns="http://www.w3.org/2000/svg" viewBox="0 0 99 37"><path d="M52.91,1V15.93l-2-3.44-3.68,2.15.09-4.25h-4l.09,4.25L39.8,12.49l-2,3.45V1h-6V36h6V20.06l2,3.42,3.65-2.15-.09,4.26h4l-.09-4.26L51,23.48l2-3.41V36h6V1ZM37.81,20.06V15.94l3.68,2ZM49.24,18l3.67-2v4.11Z"/><path d="M1,1H14.22c7.46,0,11.66,3.61,11.66,10.82,0,7-4.36,11-11.85,11H7V36H1ZM13.63,18.15c4.14,0,6.16-2.23,6.16-6.38s-2-5.95-6.08-5.95H7V18.15Z"/><path d="M67.92,1H80.33C92.26,1,98.07,7.78,98.07,18.45S92.26,36,80.33,36H67.92ZM80.47,30.94c8,0,11.44-4.61,11.44-12.49S88.43,6.06,80.47,6.06H73.9V30.94Z"/></svg>